#!OML:ASF H:\Pregnant\Project 1\Capture day 1\Session 1\femalepreg.ASF
:FULLY-SPECIFIED
:DEGREES
538
root 6.72691 15.6562 24.9945 58.8704 -86.9726 -44.0211
lowerback -20.7399 -0.618569 -2.78678
upperback -7.4275 -0.838246 1.4138
thorax 3.57878 -0.584806 2.88916
lowerneck -17.7445 9.46624 10.4476
upperneck 30.0472 11.8629 -5.55519
head 14.2683 5.42238 -1.89154
rclavicle 3.2551e-015 9.93923e-016
rhumerus -48.6776 9.18416 -78.4482
rradius 134.191
rwrist -24.3244
rhand -29.4847 -16.6652
rfingers 7.12502
rthumb -2.81986 -46.6263
lclavicle 3.2551e-015 9.93923e-016
lhumerus -57.171 -4.64701 84.7202
lradius 100.375
lwrist 29.025
lhand -27.4564 -20.2253
lfingers 7.12502
lthumb -0.86094 9.75267
rfemur -20.091 19.3374 15.9041
rtibia 26.07
rfoot -15.6291 -18.9324
rtoes -14.1077
lfemur 0 0 0
ltibia 0
lfoot 0 0
ltoes 0
539
root 6.72535 15.6549 24.9925 58.6209 -86.9628 -43.8283
lowerback -20.7766 -0.62349 -2.74848
upperback -7.36125 -0.845377 1.39912
thorax 3.66924 -0.58907 2.8494
lowerneck -17.7398 9.46933 10.4444
upperneck 29.9763 11.8552 -5.52223
head 14.2322 5.42544 -1.87902
rclavicle -1.16289e-014 5.06901e-015
rhumerus -49.8498 9.54632 -79.4919
rradius 132.292
rwrist -23.6703
rhand -28.7309 -15.6943
rfingers 7.12502
rthumb -2.09178 -45.6638
lclavicle -1.16289e-014 5.06901e-015
lhumerus -57.2827 -4.68719 85.0167
lradius 98.9668
lwrist 28.5927
lhand -24.8757 -18.7879
lfingers 7.12502
lthumb 1.63161 11.1856
rfemur -20.017 19.3294 15.9363
rtibia 26.0711
rfoot -15.6472 -18.923
rtoes -14.0725
lfemur 0 0 0
ltibia 0
lfoot 0 0
ltoes 0
540
root 6.72427 15.6537 24.9903 58.5329 -86.9592 -43.7928
lowerback -20.8209 -0.633958 -2.71751
upperback -7.29316 -0.858639 1.39132
thorax 3.76609 -0.596325 2.8197
lowerneck -17.7144 9.47892 10.4444
upperneck 29.8868 11.8601 -5.49797
head 14.1859 5.43393 -1.86881
rclavicle 1.2424e-017 -4.77083e-015
rhumerus -50.9062 9.86793 -80.4778
rradius 130.273
rwrist -23.0139
rhand -28.1261 -15.0663
rfingers 7.12502
rthumb -1.5077 -45.0407
lclavicle 1.2424e-017 -4.77083e-015
lhumerus -57.3646 -4.69005 85.2796
lradius 97.5426
lwrist 28.3697
lhand -22.4994 -18.0179
lfingers 7.12502
lthumb 3.92656 11.9257
rfemur -19.9546 19.33 15.9673
rtibia 26.0766
rfoot -15.6608 -18.9141
rtoes -14.0549
lfemur 0 0 0
ltibia 0
lfoot 0 0
ltoes 0
541
root 6.72371 15.6526 24.9881 58.6947 -86.9607 -44.0028
lowerback -20.8598 -0.644459 -2.68386
upperback -7.23339 -0.873563 1.38673
thorax 3.85137 -0.604354 2.79156
lowerneck -17.6784 9.48981 10.4393
upperneck 29.7979 11.8628 -5.4539
head 14.1354 5.44379 -1.85081
rclavicle 1.32937e-015 2.18663e-015
rhumerus -51.8555 10.1475 -81.3942
rradius 128.144
rwrist -22.4018
rhand -27.6247 -14.7665
rfingers 7.12502
rthumb -1.02347 -44.7438
lclavicle 1.32937e-015 2.18663e-015
lhumerus -57.4324 -4.67711 85.5246
lradius 96.1036
lwrist 28.3008
lhand -20.4912 -17.8048
lfingers 7.12502
lthumb 5.86555 12.094
rfemur -19.9015 19.3482 15.9996
rtibia 26.0807
rfoot -15.669 -18.9089
rtoes -14.0516
lfemur 0 0 0
ltibia 0
lfoot 0 0
ltoes 0
542
root 6.7238 15.6516 24.9859 59.1324 -86.9615 -44.4865
lowerback -20.8905 -0.647886 -2.6356
upperback -7.18162 -0.882825 1.37889
thorax 3.92328 -0.609622 2.75297
lowerneck -17.6395 9.49579 10.4261
upperneck 29.7129 11.8514 -5.38082
head 14.0818 5.45064 -1.82296
rclavicle -1.73937e-015 -1.16289e-014
rhumerus -52.6981 10.3652 -82.2302
rradius 125.922
rwrist -21.8871
rhand -27.1556 -14.7307
rfingers 7.12502
rthumb -0.570327 -44.7097
lclavicle -1.73937e-015 -1.16289e-014
lhumerus -57.4842 -4.67604 85.7648
lradius 94.6503
lwrist 28.3048
lhand -18.932 -17.9925
lfingers 7.12502
lthumb 7.3708 11.8591
rfemur -19.8541 19.3757 16.0401
rtibia 26.0808
rfoot -15.6715 -18.9004
rtoes -14.0346
lfemur 0 0 0
ltibia 0
lfoot 0 0
ltoes 0
543
root 6.7246 15.6503 24.9843 59.5041 -86.9489 -44.9125
lowerback -20.907 -0.653282 -2.56604
upperback -7.13109 -0.898857 1.36671
thorax 3.98681 -0.618147 2.69599
lowerneck -17.6062 9.50018 10.425
upperneck 29.637 11.8313 -5.30142
head 14.0332 5.45562 -1.79609
rclavicle -6.72141e-015 2.18663e-015
rhumerus -53.4178 10.5241 -82.9687
rradius 123.617
rwrist -21.5016
rhand -26.6524 -14.8928
rfingers 7.12502
rthumb -0.0843279 -44.8725
lclavicle -6.72141e-015 2.18663e-015
lhumerus -57.5135 -4.68395 86.0006
lradius 93.1832
lwrist 28.3003
lhand -17.8313 -18.3961
lfingers 7.12502
lthumb 8.43317 11.4155
rfemur -19.7977 19.401 16.0878
rtibia 26.0765
rfoot -15.6642 -18.9041
rtoes -14.0371
lfemur 0 0 0
ltibia 0
lfoot 0 0
ltoes 0
544
root 6.72807 15.6487 24.9829 58.8542 -86.898 -44.334
lowerback -20.8711 -0.679936 -2.49422
upperback -7.08445 -0.942699 1.34411
thorax 4.02098 -0.639551 2.62021
lowerneck -17.5913 9.50065 10.456
upperneck 29.5779 11.7973 -5.23261
head 13.9982 5.45596 -1.78054
rclavicle -1.92573e-015 -7.25564e-015
rhumerus -54.0158 10.6138 -83.6039
rradius 121.245
rwrist -21.2499
rhand -26.0442 -15.174
rfingers 7.12502
rthumb 0.503047 -45.1531
lclavicle -1.92573e-015 -7.25564e-015
lhumerus -57.5113 -4.70266 86.2225
lradius 91.6987
lwrist 28.2225
lhand -17.1563 -18.8599
lfingers 7.12502
lthumb 9.08448 10.9245
rfemur -19.717 19.4059 16.1333
rtibia 26.0705
rfoot -15.6543 -18.9497
rtoes -14.0285
lfemur 0 0 0
ltibia 0
lfoot 0 0
ltoes 0
545
root 6.73335 15.6469 24.9819 57.5523 -86.8185 -43.1164
lowerback -20.796 -0.722856 -2.4204
upperback -7.04249 -1.00809 1.3153
thorax 4.03109 -0.670984 2.53182
lowerneck -17.5749 9.50033 10.5039
upperneck 29.5241 11.7598 -5.17205
head 13.967 5.4553 -1.77173
rclavicle -7.33018e-016 1.28216e-014
rhumerus -54.5064 10.6607 -84.1531
rradius 118.827
rwrist -21.1753
rhand -25.3906 -15.5255
rfingers 7.12502
rthumb 1.13436 -45.5023
lclavicle -7.33018e-016 1.28216e-014
lhumerus -57.4829 -4.73318 86.4315
lradius 90.1965
lwrist 28.0496
lhand -16.8272 -19.2687
lfingers 7.12502
lthumb 9.40204 10.5016
rfemur -19.6207 19.3896 16.1776
rtibia 26.0656
rfoot -15.6466 -19.0178
rtoes -14.0043
lfemur 0 0 0
ltibia 0
lfoot 0 0
ltoes 0
546
root 6.74001 15.6449 24.981 55.8155 -86.7173 -41.4758
lowerback -20.6896 -0.773406 -2.33963
upperback -7.00206 -1.08399 1.27246
thorax 4.02355 -0.70723 2.42233
lowerneck -17.5658 9.4965 10.5541
upperneck 29.4786 11.7106 -5.09567
head 13.9388 5.45163 -1.75904
rclavicle 6.13748e-015 -4.17448e-015
rhumerus -54.8943 10.6568 -84.6353
rradius 116.362
rwrist -21.2572
rhand -24.7128 -15.8981
rfingers 7.12502
rthumb 1.78893 -45.8703
lclavicle 6.13748e-015 -4.17448e-015
lhumerus -57.4217 -4.79296 86.6175
lradius 88.6772
lwrist 27.8189
lhand -16.7682 -19.519
lfingers 7.12502
lthumb 9.45903 10.2487
rfemur -19.5125 19.357 16.2205
rtibia 26.0661
rfoot -15.643 -19.1025
rtoes -13.9751
lfemur 0 0 0
ltibia 0
lfoot 0 0
ltoes 0
547
root 6.74689 15.643 24.9801 54.2778 -86.624 -40.0301
lowerback -20.5848 -0.820316 -2.2602
upperback -6.96299 -1.15459 1.223
thorax 4.01447 -0.740948 2.30802
lowerneck -17.5634 9.49082 10.614
upperneck 29.4414 11.6577 -5.02718
head 13.9169 5.44596 -1.75145
rclavicle 2.68359e-015 -7.65321e-015
rhumerus -55.1874 10.632 -85.0614
rradius 113.856
rwrist -21.4848
rhand -24.0826 -16.274
rfingers 7.12502
rthumb 2.39756 -46.2402
lclavicle 2.68359e-015 -7.65321e-015
lhumerus -57.3253 -4.8674 86.7835
lradius 87.1385
lwrist 27.596
lhand -16.8905 -19.5475
lfingers 7.12502
lthumb 9.34097 10.2255
rfemur -19.4153 19.3249 16.2565
rtibia 26.0698
rfoot -15.6395 -19.1776
rtoes -13.9511
lfemur 0 0 0
ltibia 0
lfoot 0 0
ltoes 0
548
root 6.75303 15.6413 24.9789 53.3413 -86.568 -39.1733
lowerback -20.5047 -0.850583 -2.18781
upperback -6.92215 -1.20182 1.16956
thorax 4.0182 -0.763499 2.19893
lowerneck -17.571 9.48151 10.6437
upperneck 29.4058 11.5958 -4.92082
head 13.8916 5.43799 -1.72549
rclavicle -8.92046e-015 7.95139e-015
rhumerus -55.3895 10.5977 -85.4503
rradius 111.307
rwrist -21.8407
rhand -23.5548 -16.6519
rfingers 7.12502
rthumb 2.9073 -46.6118
lclavicle -8.92046e-015 7.95139e-015
lhumerus -57.1895 -4.9626 86.9396
lradius 85.5852
lwrist 27.4789
lhand -17.1195 -19.3226
lfingers 7.12502
lthumb 9.12007 10.4602
rfemur -19.3424 19.2895 16.285
rtibia 26.0778
rfoot -15.6326 -19.2096
rtoes -13.9558
lfemur 0 0 0
ltibia 0
lfoot 0 0
ltoes 0
549
root 6.75795 15.6402 24.9775 53.3918 -86.5579 -39.2801
lowerback -20.467 -0.852263 -2.1087
upperback -6.88148 -1.21328 1.11591
thorax 4.04126 -0.769085 2.09384
lowerneck -17.593 9.46589 10.6367
upperneck 29.3757 11.5218 -4.77384
head 13.8646 5.42587 -1.67948
rclavicle 1.48095e-014 -6.75868e-015
rhumerus -55.5102 10.573 -85.8173
rradius 108.724
rwrist -22.3284
rhand -23.2528 -17.0827
rfingers 7.12502
rthumb 3.19896 -47.0384
lclavicle 1.48095e-014 -6.75868e-015
lhumerus -57.0154 -5.07998 87.0926
lradius 84.0234
lwrist 27.5731
lhand -17.4102 -18.8326
lfingers 7.12502
lthumb 8.83955 10.9622
rfemur -19.3089 19.2787 16.3144
rtibia 26.0877
rfoot -15.621 -19.1991
rtoes -13.9823
lfemur 0 0 0
ltibia 0
lfoot 0 0
ltoes 0
